<?xml version="1.0" encoding="UTF-8" standalone="no"?>
<svg
   width="897.95117"
   height="769.04761"
   version="1.1"
   id="svg10856"
   sodipodi:docname="3dawg.svg"
   inkscape:version="1.1 (c68e22c387, 2021-05-23)"
   xmlns:inkscape="http://www.inkscape.org/namespaces/inkscape"
   xmlns:sodipodi="http://sodipodi.sourceforge.net/DTD/sodipodi-0.dtd"
   xmlns="http://www.w3.org/2000/svg"
   xmlns:svg="http://www.w3.org/2000/svg">
   <defs
      id="defs10860" />
   <sodipodi:namedview
      id="namedview10858"
      pagecolor="#ffffff"
      bordercolor="#666666"
      borderopacity="1.0"
      inkscape:pageshadow="2"
      inkscape:pageopacity="0.0"
      inkscape:pagecheckerboard="0"
      showgrid="false"
      inkscape:zoom="0.70710678"
      inkscape:cx="415.07168"
      inkscape:cy="337.28993"
      inkscape:window-width="1658"
      inkscape:window-height="1081"
      inkscape:window-x="1440"
      inkscape:window-y="152"
      inkscape:window-maximized="0"
      inkscape:current-layer="svg10856"
      fit-margin-top="0"
      fit-margin-left="0"
      fit-margin-right="0"
      fit-margin-bottom="0"
      showguides="true"
      inkscape:guide-bbox="true">
      <sodipodi:guide
         position="152.38086,602.77126"
         orientation="0,-1"
         id="guide5789" />
   </sodipodi:namedview>
   <path
      id="path10818"
      d="m 680.9082,0.01071299 c -1.19353,0.03699999 -2.39281,0.16975004 -3.59179,0.40624999 C 667.8584,2.2819631 658.49005,6.6592761 649.49805,10.112275 l -38.30078,14.701172 c -24.982,9.847 -50.29769,18.825844 -75.30469,28.589844 47.832,15.289 78.52406,32.411509 117.03906,64.644539 7.072,-7.58099 13.38475,-15.81632 20.25977,-23.570321 15.697,17.012001 32.24673,33.338491 48.55273,49.771491 7.165,7.221 14.84686,14.23892 21.50586,21.91992 -15.47267,-0.35333 -30.9434,-0.31977 -46.41406,0.10156 -6.756,-9.1115 -13.59044,-17.28032 -20.80664,-25.11523 7.21587,7.835 14.04868,16.00568 20.80468,25.11718 -30.537,0.313 -61.10257,-0.044 -91.64257,-0.043 l -186.69727,0.043 -141.25,-0.0273 c -24.51,-0.006 -49.08103,0.41478 -73.58203,-0.0742 v -0.002 c -17.094,-0.0907 -34.18725,-0.0546 -51.28125,0.10742 l 72.06055,-71.777346 c 7.06999,7.927996 14.22323,15.812096 20.74023,24.205076 36.33961,-31.881368 72.2803,-51.191901 118.25781,-65.718748 5.2515,-1.3285 10.49733,-2.682156 15.76758,-3.925781 -5.27017,1.24344 -10.51608,2.595328 -15.76758,3.923828 -7.422,-2.791 -15.13606,-5.003484 -22.66406,-7.521484 -14.71,-4.868671 -29.35238,-9.931454 -43.92773,-15.189454 -16.79266,-6.07333 -33.61981,-12.051593 -50.48047,-17.933593 -8.298,-2.9180019 -17.32052,-6.9619062 -25.97852,-8.5039062 -5.622,-1 -11.82053,-0.2860313 -17.01953,2.0429687 -2.269,1.017 -4.12725,2.218875 -6.03125,3.796875 -8.005,6.6359995 -15.20772,14.5556555 -22.63672,21.8476555 L 126.94336,79.043916 C 102.46583,110.07909 57.002192,140.14047 34.791016,169.74509 l -0.002,0.002 c -7.393799,5.79 -13.929181,13.04332 -20.550781,19.69532 C 9.5027815,194.20036 4.2827,198.8762 0,204.0322 L 0.00976563,339.08493 C 11.246366,349.33793 21.893372,360.1557 33.326172,370.2197 c -0.8442,-2.4175 -1.478366,-4.91456 -1.947266,-7.44531 0.469071,2.53071 1.105019,5.02781 1.949219,7.44531 -0.002,0 67.533205,41.0625 67.533205,41.0625 16.624,0.0787 33.24776,0.0731 49.87109,-0.0176 -2.389,-12.683 -3.90711,-26.72515 -3.78711,-39.66015 5.727,5.79 11.42958,11.51295 17.89258,16.50195 1.59733,1.20733 3.21928,2.38077 4.86328,3.52344 1.644,1.142 3.31067,2.25083 5,3.32617 1.68867,1.07533 3.39824,2.11642 5.12891,3.12304 1.73066,1.00667 3.48066,1.97807 5.25,2.91407 1.77,0.936 3.55728,1.8365 5.36328,2.70117 1.80533,0.86467 3.62746,1.69175 5.4668,2.48242 1.83933,0.79133 3.69316,1.54701 5.5625,2.26367 1.86933,0.71667 3.75372,1.39449 5.65039,2.03516 1.89666,0.64133 3.80523,1.24459 5.72656,1.80859 1.92067,0.564 3.85292,1.08947 5.79492,1.57618 1.94267,0.48666 3.89352,0.93313 5.85352,1.34179 1.96,0.408 3.92767,0.77809 5.90234,1.10742 1.97467,0.32867 3.95474,0.6159 5.94141,0.86524 1.98666,0.25 3.97799,0.45957 5.97265,0.6289 1.99534,0.16934 3.99219,0.29934 5.99219,0.38868 2,0.0893 4.00191,0.13781 6.00391,0.14648 13.464,0.038 26.52129,-2.30158 39.65429,-5.01758 -0.096,0.107 -0.19011,0.21336 -0.28711,0.31836 -6.911,7.521 -16.65709,13.90967 -24.12109,21.76367 -26.252,27.624 -43.46003,67.08624 -42.20703,105.36524 0.359,10.967 2.80172,20.90137 5.38672,31.48437 1.55,2.308 2.69511,5.14344 4.03711,7.60743 3.477,6.38702 7.46526,12.34215 12.44726,17.66015 0.47534,0.512 0.9586,1.01691 1.44727,1.51758 0.488,0.5 0.98175,0.99509 1.48242,1.48242 0.50133,0.488 1.00882,0.96869 1.52149,1.44336 0.51267,0.47533 1.03001,0.94425 1.55468,1.40625 0.52467,0.46133 1.05513,0.91654 1.5918,1.36524 0.536,0.44866 1.07766,0.88955 1.625,1.32421 0.54733,0.43467 1.1002,0.86187 1.6582,1.28321 0.558,0.42066 1.12274,0.83552 1.69141,1.24218 0.568,0.40667 1.14008,0.80656 1.71875,1.19922 0.57866,0.392 1.162,0.7763 1.75,1.1543 0.58866,0.37733 1.18197,0.74669 1.7793,1.10938 0.59734,0.36266 1.19998,0.71907 1.80664,1.0664 0.60668,0.34733 1.21669,0.68558 1.83203,1.01758 0.61466,0.33267 1.23408,0.65861 1.85742,0.97461 0.62333,0.31667 1.25019,0.62511 1.88086,0.92578 0.63133,0.30067 1.26564,0.59229 1.9043,0.87695 0.638,0.28467 1.28044,0.56141 1.92578,0.83008 0.64533,0.26867 1.29331,0.52925 1.94531,0.78125 0.652,0.25267 1.30684,0.49709 1.96484,0.73242 0.658,0.236 1.32038,0.46298 1.98438,0.68164 0.664,0.21934 1.32943,0.43082 1.99804,0.63282 0.66934,0.20266 1.34163,0.39669 2.01563,0.58203 0.674,0.18533 1.35063,0.36129 2.0293,0.52929 0.678,0.16867 1.35834,0.32785 2.04101,0.47852 0.68267,0.15133 1.36674,0.29373 2.05274,0.42773 0.686,0.134 1.37316,0.26029 2.0625,0.37696 0.68866,0.11666 1.37831,0.22488 2.07031,0.32422 0.692,0.0987 1.38541,0.18948 2.08008,0.27148 0.694,0.082 1.38994,0.15475 2.08593,0.21875 0.69602,0.064 1.39251,0.11935 2.08985,0.16602 0.69733,0.0467 1.39508,0.0839 2.09375,0.11328 0.69866,0.0293 1.39703,0.0492 2.0957,0.0605 23.072,0.54 45.11811,-7.49756 61.78711,-23.60156 16.365,-15.809 25.04341,-36.70973 25.44141,-59.30273 0.041,-2.355 0.61937,-7.01299 -1.01563,-8.70899 7.285,-4.377 15.82446,-7.62037 23.43946,-11.48437 9.915,-5.031 19.74906,-11.01885 29.91406,-15.46485 10.612,5.76 21.36629,11.2376 32.26562,16.4336 6.403,3.108 13.00773,5.98326 19.22071,9.44726 -3.48499,7.508 1.60553,29.41849 4.39453,37.14649 7.442,20.613 24.34587,38.15773 44.17187,47.30273 0.658,0.304 1.321,0.60067 1.98633,0.88867 0.66533,0.28734 1.33386,0.56655 2.00586,0.8379 0.672,0.27134 1.34672,0.5331 2.02539,0.7871 0.67867,0.25467 1.35959,0.50095 2.04492,0.73829 0.68467,0.23733 1.3738,0.46554 2.06446,0.68554 0.69,0.22067 1.38212,0.4321 2.07812,0.63477 0.696,0.20333 1.39375,0.39798 2.09375,0.58398 0.70067,0.18534 1.40405,0.36259 2.10938,0.53125 0.70467,0.168 1.41175,0.32718 2.12109,0.47852 0.70866,0.15066 1.42014,0.29311 2.13281,0.42578 0.71267,0.13333 1.4253,0.25771 2.14063,0.37305 0.71533,0.11533 1.4324,0.22231 2.15039,0.32031 0.71866,0.0973 1.43821,0.18562 2.1582,0.26562 0.72068,0.0793 1.44206,0.15089 2.16406,0.21289 0.722,0.062 1.44592,0.11421 2.16993,0.15821 0.72334,0.0433 1.44592,0.0775 2.16992,0.10351 0.72466,0.026 1.44917,0.0428 2.17382,0.0508 0.72467,0.008 1.44917,0.008 2.17383,-0.002 0.72467,-0.01 1.44916,-0.0286 2.17383,-0.0566 0.724,-0.028 1.44856,-0.0653 2.17188,-0.11133 0.72335,-0.046 1.44602,-0.10201 2.16796,-0.16601 0.722,-0.064 1.44211,-0.13675 2.16211,-0.21875 0.72,-0.082 1.44021,-0.17215 2.15821,-0.27149 0.718,-0.1 1.43505,-0.20884 2.15039,-0.32617 0.71533,-0.118 1.42862,-0.24424 2.14062,-0.37891 0.712,-0.13533 1.42091,-0.28026 2.12891,-0.43359 0.70866,-0.15267 1.41643,-0.31242 2.12109,-0.48242 0.70467,-0.17067 1.40741,-0.35106 2.10743,-0.53906 0.70001,-0.188 1.39646,-0.38518 2.09179,-0.58985 0.69467,-0.20533 1.38814,-0.41796 2.07813,-0.64062 0.69001,-0.222 1.37654,-0.45403 2.06054,-0.69336 0.684,-0.24 1.36497,-0.48619 2.04297,-0.74219 17.326,-6.515 32.24794,-17.56625 42.58594,-33.03125 3.13,-4.681 5.45604,-10.14489 8.83203,-14.58789 0.303,-4.416 2.39705,-9.43416 3.24805,-13.91016 2.084,-10.956 2.1922,-22.92018 1.1582,-33.99218 -0.092,-1.03067 -0.19583,-2.05923 -0.3125,-3.08789 -0.116,-1.028 -0.24476,-2.05475 -0.38476,-3.08008 -0.14,-1.026 -0.29108,-2.05093 -0.45508,-3.07227 -0.164,-1.022 -0.34001,-2.04059 -0.52735,-3.05859 -0.18733,-1.01734 -0.38632,-2.03354 -0.59765,-3.04688 -0.21134,-1.01333 -0.43397,-2.02325 -0.66797,-3.03125 -0.23467,-1.008 -0.48224,-2.01362 -0.74024,-3.01562 -0.258,-1.00267 -0.52726,-2.00076 -0.80859,-2.9961 -0.28133,-0.996 -0.57295,-1.98918 -0.87695,-2.97851 -0.30467,-0.98933 -0.6206,-1.97503 -0.94727,-2.95703 -0.32733,-0.982 -0.66562,-1.9596 -1.01562,-2.9336 -0.35,-0.974 -0.71199,-1.94482 -1.08399,-2.91015 -0.37266,-0.96534 -0.75572,-1.92617 -1.15039,-2.88281 -0.39466,-0.95667 -0.80014,-1.90814 -1.21679,-2.85547 -0.41734,-0.94734 -0.84649,-1.8908 -1.28516,-2.82813 -0.43867,-0.93733 -0.88766,-1.86825 -1.34766,-2.79492 -0.46066,-0.92733 -0.93206,-1.84834 -1.41406,-2.76367 -0.48133,-0.916 -0.97323,-1.82776 -1.47656,-2.73242 -0.50267,-0.90467 -1.01702,-1.80265 -1.54102,-2.69532 -0.524,-0.892 -1.05756,-1.7782 -1.60156,-2.6582 -0.54467,-0.88067 -1.0994,-1.75376 -1.66406,-2.62109 -0.56467,-0.86667 -1.13995,-1.72801 -1.72461,-2.58204 -0.58534,-0.85399 -1.17921,-1.70101 -1.78321,-2.54101 -0.60466,-0.84 -1.21846,-1.67205 -1.84179,-2.49805 -0.624,-0.826 -1.25773,-1.64441 -1.90039,-2.45508 -0.64334,-0.81133 -1.2957,-1.61611 -1.95703,-2.4121 -0.66134,-0.796 -1.33172,-1.58329 -2.01172,-2.36329 -0.67934,-0.78066 -1.36841,-1.5524 -2.06641,-2.3164 -0.69733,-0.76467 -1.40381,-1.52153 -2.11914,-2.26953 -0.71533,-0.748 -1.43921,-1.48809 -2.17188,-2.21875 -0.73266,-0.73134 -1.47332,-1.45397 -2.22265,-2.16797 -0.74933,-0.714 -1.50615,-1.41924 -2.27149,-2.11524 -8.479,-7.607 -18.02826,-13.59103 -26.69726,-20.83203 l -0.36328,-0.30859 c 6.207,1.395 12.34406,2.74745 18.66406,3.56445 50.566,6.535 88.06255,-9.19276 127.06055,-39.38476 -0.179,10.987 -0.51949,22.26981 -2.27149,33.13281 18.05399,0.412 36.19551,-0.33163 54.22852,0.35937 l 59.21484,-33.3164 c 5.05201,-4.288 9.57952,-9.58789 14.22852,-14.33789 l 25.05273,-25.23828 c -1.11,-45.184 -0.34263,-90.5763 -0.30664,-135.7793 -46.40733,-45.27 -92.41544,-90.94096 -138.02344,-137.01563 -13.67933,-13.82666 -27.51266,-27.499625 -41.5,-41.015625 -6.093,-5.968 -11.88026,-12.583109 -18.32226,-18.1621088 -2.505,-2.17 -5.36706,-4.0794376 -8.41406,-5.3984376 -3.3615,-1.45574978 -6.89597,-2.21447562 -10.47657,-2.10351561 z M 29.998047,264.24314 c 0.03038,63.94351 0.03051,63.94351 -0.002,0 0.01507,-53.69783 0.01494,-53.69783 0.002,0 z m 418.748043,-7.3125 c 5.50233,-0.0334 11.03619,1.12717 15.96875,3.34961 9.479,4.269 16.51063,12.15633 20.14063,21.86132 2.805,7.49901 3.02637,15.96155 5.23437,23.68555 3.239,11.333 8.55625,21.57166 13.15625,32.34766 -29.71,-15.458 -61.5359,-19.08311 -93.2539,-7.03711 -2.944,1.118 -10.57299,5.71637 -13.33399,5.10937 4.334,-9.663 8.93499,-19.27323 11.83399,-29.49023 2.058,-7.251 2.48937,-14.76295 4.35937,-22.00195 3.025,-11.71 12.23807,-21.16663 23.41406,-25.51563 3.94057,-1.53344 8.20088,-2.2826 12.48047,-2.30859 z"
      style="fill:#0d375d;fill-opacity:1"
      sodipodi:nodetypes="cccccccscccccccccccccccccccccccccccccccccccccscccsccccccssccccscccsscccsccccssccccsccccsccsscssssccccsccccccsccccccccsccscssssssscccccscccccccccsssscscccscscscccccccccssccscscccccccccccccccscscscsccsccsssc" />
   <path
      fill="#0d375d"
      d="m 740.2266,399.72659 c 1.151,4.865 0.985,10.093 1.067,15.075 -0.915,7.991 0.382,16.997 0.765,25.049 1.003,21.067 2.141,42.276 -1.276,63.183 -5.356,32.775 -21.796,64.827 -44.252,89.231 -11.699,12.714 -25.558,21.327 -39.544,31.105 q -22.599,15.923 -45.404,31.548 -81.843,56.649 -163.103,114.13 l -173.769,-121.581 q -19.714,-13.824 -39.662,-27.31 c -9.704,-6.695 -19.834,-13.15 -28.317,-21.391 -17.868,-17.357 -31.886,-39.309 -40.772,-62.534 -12.779,-33.402 -13.463,-69.646 -8.599,-104.648 0.684,-4.921 0.863,-13.396 2.827,-17.777 13.542,44.621 36.214,88.163 72.549,118.447 1.55,2.308 2.695,5.143 4.037,7.607 3.477,6.387 7.465,12.342 12.447,17.66 q 0.713,0.768 1.446,1.519 0.732,0.75 1.483,1.481 0.752,0.732 1.521,1.444 0.769,0.713 1.556,1.406 0.787,0.692 1.592,1.365 0.804,0.673 1.625,1.325 0.821,0.652 1.658,1.284 0.837,0.631 1.69,1.241 0.852,0.61 1.72,1.199 0.868,0.588 1.75,1.155 0.883,0.566 1.779,1.11 0.896,0.544 1.806,1.065 0.91,0.521 1.833,1.019 0.922,0.499 1.857,0.973 0.935,0.475 1.881,0.926 0.947,0.451 1.905,0.878 0.957,0.427 1.925,0.83 0.968,0.403 1.946,0.781 0.978,0.379 1.965,0.732 0.987,0.354 1.983,0.682 0.996,0.329 1.999,0.632 1.004,0.304 2.015,0.582 1.011,0.278 2.029,0.53 1.017,0.253 2.041,0.479 1.024,0.227 2.053,0.428 1.029,0.201 2.063,0.376 1.033,0.175 2.071,0.324 1.038,0.148 2.08,0.271 1.041,0.123 2.085,0.219 1.044,0.096 2.09,0.166 1.046,0.07 2.094,0.114 1.048,0.044 2.096,0.061 c 23.072,0.54 45.118,-7.498 61.787,-23.602 16.365,-15.809 25.042,-36.709 25.44,-59.302 0.041,-2.355 0.62,-7.014 -1.015,-8.71 7.285,-4.377 15.824,-7.621 23.439,-11.485 9.915,-5.031 19.749,-11.018 29.914,-15.464 q 15.918,8.64 32.267,16.434 c 6.403,3.108 13.008,5.983 19.221,9.447 -3.485,7.508 1.605,29.419 4.394,37.147 7.442,20.613 24.346,38.157 44.172,47.302 q 0.987,0.456 1.985,0.888 0.998,0.431 2.006,0.838 1.008,0.407 2.026,0.788 1.018,0.382 2.046,0.738 1.027,0.356 2.063,0.686 1.035,0.331 2.079,0.635 1.044,0.305 2.095,0.584 1.05,0.278 2.108,0.531 1.057,0.252 2.121,0.479 1.063,0.226 2.132,0.425 1.069,0.2 2.142,0.373 1.073,0.173 2.15,0.32 1.078,0.146 2.158,0.266 1.081,0.119 2.164,0.212 1.083,0.093 2.169,0.159 1.085,0.065 2.171,0.104 1.087,0.039 2.174,0.051 1.087,0.012 2.174,-0.003 1.087,-0.015 2.174,-0.057 1.086,-0.042 2.171,-0.111 1.085,-0.069 2.168,-0.165 1.083,-0.096 2.163,-0.219 1.08,-0.123 2.157,-0.272 1.077,-0.15 2.15,-0.326 1.073,-0.177 2.141,-0.38 1.068,-0.202 2.131,-0.432 1.062,-0.229 2.119,-0.484 1.057,-0.256 2.107,-0.538 1.05,-0.282 2.093,-0.589 1.042,-0.308 2.077,-0.642 1.035,-0.333 2.061,-0.692 1.026,-0.36 2.043,-0.744 c 17.326,-6.515 32.249,-17.566 42.587,-33.031 3.13,-4.681 5.456,-10.145 8.832,-14.588 35.957,-36.153 59.765,-81.952 72.613,-130.962 z"
      id="path10822" />
   <path
      fill="#f6d499"
      d="m 396.65905,336.24672 c 4.334,-9.663 8.934,-19.273 11.833,-29.49 2.058,-7.251 2.49,-14.764 4.36,-22.003 3.025,-11.71 12.238,-21.167 23.414,-25.516 9.007,-3.505 19.681,-2.909 28.45,1.042 9.479,4.269 16.509,12.156 20.139,21.861 2.805,7.499 3.027,15.962 5.235,23.686 3.239,11.333 8.557,21.572 13.157,32.348 -29.71,-15.458 -61.537,-19.083 -93.255,-7.037 -2.944,1.118 -10.572,5.716 -13.333,5.109 z"
      id="path10830" />
   <path
      fill="#f6d499"
      d="m 747.49805,378.88572 c -0.179,10.987 -0.519,22.269 -2.271,33.132 -1.139,9.355 -2.96,18.513 -5,27.708 -12.848,49.01 -36.656,94.809 -72.613,130.962 0,0 -42.29572,-107.85631 -65.476,-155.673 l -0.365,-0.31 c 6.207,1.395 12.344,2.748 18.664,3.565 50.566,6.535 88.063,-9.192 127.061,-39.384 z"
      id="path10832"
      sodipodi:nodetypes="cccccccc" />
   <path
      fill="#f6d499"
      d="m 146.94605,371.60272 c 5.727,5.79 11.43,11.513 17.893,16.502 1.59733,1.20733 3.218,2.38233 4.862,3.525 1.644,1.142 3.31067,2.25067 5,3.326 1.68867,1.07533 3.39833,2.11633 5.129,3.123 1.73067,1.00667 3.48067,1.978 5.25,2.914 1.77,0.936 3.558,1.83633 5.364,2.701 1.80533,0.86467 3.62767,1.69233 5.467,2.483 1.83933,0.79133 3.69367,1.54533 5.563,2.262 1.86933,0.71667 3.75233,1.39533 5.649,2.036 1.89667,0.64133 3.80567,1.244 5.727,1.808 1.92067,0.564 3.852,1.08933 5.794,1.576 1.94267,0.48667 3.894,0.93433 5.854,1.343 1.96,0.408 3.92733,0.77667 5.902,1.106 1.97467,0.32867 3.95533,0.61767 5.942,0.867 1.98667,0.25 3.97733,0.45967 5.972,0.629 1.99533,0.16933 3.993,0.29867 5.993,0.388 2,0.0893 4.001,0.13833 6.003,0.147 13.464,0.038 26.523,-2.303 39.656,-5.019 -0.096,0.107 -0.19,0.215 -0.287,0.32 0,0 -60.94245,158.61387 -60.942,158.613 -36.335,-30.284 -59.007,-73.826 -72.549,-118.447 l -0.422,-1.492 c -3.742,-13.631 -6.813,-27.085 -9.034,-41.05 -2.389,-12.683 -3.906,-26.726 -3.786,-39.661 z"
      id="path10834"
      sodipodi:nodetypes="ccccscccsccccccsscccccccc" />
   <path
      fill="#f6d499"
      d="m 363.43945,52.983369 c 10.503,-2.657 20.985,-5.408 31.68,-7.198 45.704,-7.648 96.229,-5.606 140.773,7.617 47.832,15.289 78.524,32.412003 117.039,64.645001 16.567,15.543 30.391,30 43.903,48.223 -30.537,0.313 -61.104,-0.043 -91.644,-0.042 l -186.697,0.043 -141.25,-0.027 c -24.51,-0.006 -49.08,0.414 -73.581,-0.075 0.305,-1.811 3.511,-5.205 4.715,-6.767 11.21,-14.545 23.229,-28.314 36.803,-40.699 36.34,-31.881998 72.281,-51.193001 118.259,-65.720001 z"
      id="path10840" />
   <path
      id="cupRight"
      fill="#39C5B7"
      d="m 799.0846,166.27635 c 12.567,-0.0917 26.542,-1.58708 38.525,2.56813 10.385,3.60156 18.196,9.44859 22.787,19.00661 q 0.62,1.26817 1.12,2.58216 0.499,1.31399 0.873,2.66353 0.375,1.34953 0.621,2.72431 0.247,1.37572 0.364,2.76547 c 0.866,9.56643 0.473,19.44429 0.514,29.05187 l 0.185,49.34069 -0.04,54.17393 c -0.04,11.2115 0.383,22.63623 -0.707,33.80564 -0.555,5.68524 -2.524,10.95431 -4.658,16.26733 -11.016,16.08496 -25.724,25.7524 -45.758,29.94595 -4.415,0.92401 -8.924,1.50946 -13.456,1.21299 z"
   />
   <path
      id="cupLeft"
      fill="#e6234e"
      d="m 49.4026,172.47776 c 4.431,-1.87593 8.772,-3.69861 13.523,-4.77017 10.947,-2.4673 26.154,-1.3565 37.65,-1.43124 l 0.181,152.5923 c 0.023,30.79032 -0.398,61.63109 0.104,92.41394 -9.308,-0.30176 -18.105,-0.85856 -26.985,-3.69955 -18.856,-6.03138 -31.842,-18.2212 -40.5485,-34.66176 -1.6884,-4.517 -2.5438,-9.33389 -2.8958,-14.09752 -0.7565,-10.23728 -0.3801,-20.73428 -0.4063,-30.99959 l -0.0282,-53.90969 0.012,-45.28395 c 0.0051,-9.64124 -0.3888,-19.46373 0.5608,-29.0704 0.4892,-4.94768 2.168,-9.37406 4.2201,-13.92749 4.2079,-5.32044 8.9849,-9.19375 14.6129,-13.15488 z"
   />
   <path
      fill="#E7234E"
      d="m 574.43648,214.83994 c 7.069,-0.62343 14.55939,-0.14547 21.66995,-0.11083 l 40.89235,0.17433 42.586,-0.13623 c 11.08781,-0.0577 23.70533,-1.3069 34.48835,1.39463 10.96312,2.74771 20.34343,10.11918 26.10438,19.78696 8.57908,14.39314 8.27083,32.94824 4.3109,48.7441 -6.70764,26.75782 -25.0203,47.56074 -48.27653,61.499 -12.31273,6.65684 -25.23966,11.17671 -39.15368,12.97542 -29.76645,3.85025 -58.23524,-4.41481 -81.82973,-22.79558 -20.10791,-15.66425 -35.33229,-40.84156 -38.26587,-66.32251 -1.62438,-14.11721 0.20666,-28.46532 9.32835,-39.85214 7.1198,-8.88849 16.88224,-14.1253 28.14553,-15.35715 z"
      id="glassRight"
   />
   <path
      fill="#39C5B7"
      d="m 190.03599,212.7145 c 6.91165,-0.6022 14.16434,-0.22657 21.10461,-0.22299 l 39.22919,0.0346 39.50346,-0.0644 c 13.06487,-0.0668 28.04725,-1.72671 40.69356,1.69214 11.68039,3.15651 22.21838,10.73833 28.24044,21.31806 9.12728,16.03535 7.75592,37.77913 2.81545,54.90441 -7.09409,24.59501 -24.54492,44.66692 -46.8277,56.86843 -8.55251,4.58511 -18.18183,7.66053 -27.69905,9.44687 -30.77447,5.77998 -67.42193,3.30795 -93.69834,-14.98358 -21.75928,-15.14695 -37.83637,-40.26546 -42.47037,-66.39877 -2.68547,-15.14695 -1.3797,-31.41007 7.80721,-44.21855 7.62117,-10.62504 18.60038,-16.26192 31.30154,-18.3762 z"
      id="glassLeft"
   />
   <path
      fill="#39c7b7"
      d="m 396.6586,336.24759 c 2.761,0.607 10.389,-3.991 13.333,-5.109 31.718,-12.046 63.545,-8.421 93.255,7.037 3.505,4.086 11.959,15.504 13.533,20.272 2.662,1.029 10.008,10.397 12.681,13.112 6.335,6.436 13.233,12.659 20.614,17.888 11.071,7.843 23.107,15.36 35.774,20.317 4.009,1.569 12.839,3.155 15.924,4.941 l 0.365,0.31 c 8.669,7.241 18.217,13.225 26.696,20.832 q 1.148,1.044 2.272,2.115 1.124,1.071 2.223,2.168 1.099,1.096 2.172,2.218 1.073,1.122 2.119,2.269 1.047,1.146 2.066,2.317 1.02,1.17 2.012,2.364 0.992,1.194 1.957,2.411 0.964,1.216 1.9,2.455 0.935,1.239 1.842,2.499 0.906,1.26 1.784,2.541 0.877,1.281 1.724,2.581 0.847,1.301 1.664,2.622 0.816,1.32 1.602,2.658 0.786,1.339 1.54,2.696 0.755,1.357 1.477,2.731 0.723,1.373 1.414,2.764 0.69,1.39 1.348,2.796 0.658,1.406 1.284,2.827 0.625,1.421 1.217,2.856 0.592,1.435 1.151,2.883 0.558,1.448 1.083,2.909 0.525,1.461 1.016,2.934 0.49,1.473 0.947,2.957 0.456,1.484 0.878,2.978 0.422,1.493 0.809,2.997 0.387,1.503 0.739,3.015 0.351,1.512 0.668,3.032 0.317,1.52 0.598,3.046 0.281,1.527 0.527,3.06 0.246,1.532 0.456,3.071 0.21,1.538 0.384,3.08 0.175,1.543 0.313,3.089 c 1.034,11.072 0.925,23.036 -1.159,33.992 -0.851,4.476 -2.944,9.494 -3.247,13.91 -3.376,4.443 -5.702,9.907 -8.832,14.588 -10.338,15.465 -25.261,26.516 -42.587,33.031 q -1.017,0.384 -2.043,0.744 -1.026,0.359 -2.061,0.692 -1.035,0.334 -2.077,0.642 -1.043,0.307 -2.093,0.589 -1.05,0.282 -2.107,0.538 -1.057,0.255 -2.12,0.484 -1.062,0.23 -2.13,0.433 -1.068,0.202 -2.141,0.379 -1.073,0.176 -2.15,0.326 -1.077,0.149 -2.157,0.272 -1.08,0.123 -2.163,0.219 -1.083,0.096 -2.168,0.165 -1.085,0.069 -2.171,0.111 -1.087,0.042 -2.174,0.057 -1.087,0.015 -2.174,0.003 -1.087,-0.012 -2.174,-0.051 -1.086,-0.039 -2.171,-0.104 -1.086,-0.066 -2.169,-0.159 -1.083,-0.093 -2.164,-0.212 -1.08,-0.12 -2.158,-0.266 -1.077,-0.147 -2.15,-0.32 -1.073,-0.173 -2.142,-0.373 -1.069,-0.199 -2.132,-0.425 -1.064,-0.227 -2.121,-0.479 -1.058,-0.253 -2.109,-0.531 -1.05,-0.279 -2.094,-0.584 -1.044,-0.304 -2.079,-0.635 -1.036,-0.33 -2.063,-0.686 -1.028,-0.356 -2.046,-0.738 -1.018,-0.381 -2.026,-0.788 -1.008,-0.407 -2.006,-0.838 -0.998,-0.432 -1.985,-0.888 c -19.826,-9.145 -36.73,-26.689 -44.172,-47.302 -2.789,-7.728 -7.879,-29.639 -4.394,-37.147 -6.213,-3.464 -12.818,-6.339 -19.221,-9.447 q -16.349,-7.794 -32.267,-16.434 c -10.165,4.446 -19.999,10.433 -29.914,15.464 -7.615,3.864 -16.154,7.108 -23.439,11.485 1.635,1.696 1.056,6.355 1.015,8.71 -0.398,22.593 -9.075,43.493 -25.44,59.302 -16.669,16.104 -38.715,24.142 -61.787,23.602 q -1.048,-0.017 -2.096,-0.061 -1.048,-0.044 -2.094,-0.114 -1.046,-0.07 -2.09,-0.166 -1.044,-0.096 -2.085,-0.219 -1.042,-0.123 -2.08,-0.271 -1.038,-0.149 -2.071,-0.324 -1.034,-0.175 -2.063,-0.376 -1.029,-0.201 -2.053,-0.428 -1.024,-0.226 -2.041,-0.479 -1.018,-0.252 -2.029,-0.53 -1.011,-0.278 -2.015,-0.582 -1.003,-0.303 -1.999,-0.632 -0.996,-0.328 -1.983,-0.682 -0.987,-0.353 -1.965,-0.732 -0.978,-0.378 -1.946,-0.781 -0.968,-0.403 -1.925,-0.83 -0.958,-0.427 -1.905,-0.878 -0.946,-0.451 -1.881,-0.926 -0.935,-0.474 -1.857,-0.973 -0.923,-0.498 -1.833,-1.019 -0.91,-0.521 -1.806,-1.065 -0.896,-0.544 -1.779,-1.11 -0.882,-0.567 -1.75,-1.155 -0.868,-0.589 -1.72,-1.199 -0.853,-0.61 -1.69,-1.241 -0.837,-0.632 -1.658,-1.284 -0.821,-0.652 -1.625,-1.325 -0.805,-0.673 -1.592,-1.365 -0.787,-0.693 -1.556,-1.406 -0.769,-0.712 -1.521,-1.444 -0.751,-0.731 -1.483,-1.481 -0.733,-0.751 -1.446,-1.519 c -4.982,-5.318 -8.97,-11.273 -12.447,-17.66 -1.342,-2.464 -2.487,-5.299 -4.037,-7.607 -2.585,-10.583 -5.028,-20.518 -5.387,-31.485 -1.253,-38.279 15.955,-77.742 42.207,-105.366 7.464,-7.854 17.211,-14.241 24.122,-21.762 0.097,-0.105 0.191,-0.213 0.287,-0.32 q 4.404,-1.292 8.74,-2.798 4.336,-1.506 8.592,-3.224 4.257,-1.717 8.424,-3.641 4.167,-1.924 8.234,-4.051 4.068,-2.126 8.026,-4.45 3.959,-2.323 7.798,-4.838 3.84,-2.515 7.551,-5.215 3.712,-2.701 7.286,-5.58 c 6.569,-5.398 12.663,-11.495 18.842,-17.335 0.144,-0.306 0.285,-0.615 0.434,-0.919 0.709,-1.441 17.442,-24.425 17.835,-24.689 0.273,-0.184 0.62,-0.222 0.931,-0.333 z"
      id="path10850"
      style="fill:#b1a184;fill-opacity:1" />
   <path
      fill="#0d375d"
      d="m 448.3656,467.46659 c 11.23267,8.602 22.526,17.12333 33.88,25.564 9.409,7.026 19.167,13.919 27.767,21.928 -3.433,-1.026 -6.757,-2.243 -10.102,-3.523 -6.213,-3.464 -12.818,-6.339 -19.221,-9.447 -10.89933,-5.196 -21.655,-10.674 -32.267,-16.434 -10.165,4.446 -19.999,10.433 -29.914,15.464 -7.615,3.864 -16.154,7.108 -23.439,11.485 -2.426,0.855 -5.032,1.354 -7.532,1.963 19.449,-16.543 40.563,-31.465 60.828,-47 z"
      id="path10852"
      sodipodi:nodetypes="ccccccsccc" />
   <path
      fill="#0d375d"
      d="m 396.6586,334.24759 c 2.761,0.607 10.389,-3.991 13.333,-5.109 31.718,-12.046 63.545,-8.421 93.255,7.037 3.505,4.086 11.959,15.504 13.533,20.272 1.258,9.083 4.473,22.224 -1.457,30.218 -2.405,3.241 -6.078,5.686 -10.148,6.1 -3.837,0.39 -7.493,-1.1 -10.319,-3.656 -3.536,-3.199 -6.523,-9.481 -8.109,-13.964 l -0.948,-0.759 c -1.651,0.262 -2.77,1.731 -3.688,3.032 -7.78,11.027 -6.171,25.19 -22.455,28.585 -10.051,2.095 -20.576,2.14 -29.403,-3.787 -9.889,-6.639 -15.004,-18.097 -18.049,-29.209 -2.62,6.679 -5.067,16.18 -12.264,19.236 -3.289,1.396 -6.911,1.012 -10.122,-0.413 -5.149,-2.285 -9.364,-7.239 -11.257,-12.495 -2.116,-5.876 -1.022,-12.979 -1.102,-19.147 0.144,-0.306 0.285,-0.615 0.434,-0.919 0.709,-1.441 17.442,-24.425 17.835,-24.689 0.273,-0.184 0.62,-0.222 0.931,-0.333 z"
      id="path10854"
      sodipodi:nodetypes="ccccccccccccccsccccc" />
</svg>